{"glyphs":{"0":{"ha":938,"x_min":79,"x_max":858,"o":"m 858 469 q 753 117 858 251 q 474 -17 649 -17 q 174 138 282 -17 q 79 467 79 271 q 185 817 79 689 q 474 946 290 946 q 752 815 646 946 q 858 469 858 683 m 693 467 q 635 697 693 614 q 474 781 578 781 q 308 697 368 781 q 249 467 249 614 q 308 234 249 318 q 474 150 368 150 q 649 254 593 150 q 693 467 693 336 z "},"1":{"ha":493,"x_min":106,"x_max":386,"o":"m 386 0 l 222 0 l 222 696 l 106 696 l 106 836 q 253 931 207 857 l 386 931 l 386 0 z "},"2":{"ha":882,"x_min":65,"x_max":815,"o":"m 815 0 l 65 0 q 446 514 93 365 q 596 587 538 551 q 650 669 654 622 q 604 747 650 715 q 461 779 558 778 q 203 663 315 775 l 68 771 q 457 946 236 943 q 718 865 621 946 q 815 669 815 783 q 763 513 814 571 q 567 393 711 456 q 293 167 338 283 l 815 167 l 815 0 z "},"3":{"ha":882,"x_min":69,"x_max":814,"o":"m 813 290 q 707 72 813 161 q 444 -17 601 -17 q 69 146 218 -14 l 194 271 q 454 153 301 158 q 594 189 540 153 q 647 283 647 225 q 597 386 644 351 q 494 424 550 421 l 438 424 l 438 590 l 489 590 q 566 617 531 590 q 601 682 601 643 q 556 753 601 725 q 438 781 510 781 q 226 703 318 781 l 114 815 q 447 946 247 946 q 679 872 588 946 q 771 685 771 799 q 693 511 771 567 q 813 290 814 433 z "},"4":{"ha":993,"x_min":71,"x_max":921,"o":"m 921 189 l 783 189 l 783 0 l 619 0 l 619 189 l 71 189 l 71 338 l 625 931 l 783 931 l 783 339 l 921 339 l 921 189 m 619 339 l 619 697 l 285 339 l 619 339 z "},"5":{"ha":882,"x_min":65,"x_max":815,"o":"m 815 319 q 706 78 815 174 q 424 -17 596 -17 q 65 88 236 -17 l 153 228 q 424 151 282 154 q 593 199 531 150 q 656 321 656 249 q 599 444 658 397 q 444 492 539 490 q 244 449 344 490 l 100 490 l 124 931 l 744 931 l 744 765 l 279 765 l 271 629 q 450 656 354 654 q 713 560 610 656 q 815 319 815 465 z "},"6":{"ha":882,"x_min":67,"x_max":817,"o":"m 817 271 q 717 65 817 146 q 461 -17 618 -17 q 181 78 294 -17 q 67 346 67 174 q 248 758 69 575 q 686 946 426 942 l 686 789 q 278 521 396 743 q 468 551 364 551 q 718 472 619 551 q 817 271 817 393 m 651 269 q 597 356 651 324 q 456 389 543 389 q 310 360 361 389 q 261 281 260 332 q 313 190 257 226 q 456 153 368 153 q 597 185 543 153 q 651 269 651 218 z "},"7":{"ha":882,"x_min":65,"x_max":817,"o":"m 817 768 q 529 0 547 397 l 353 0 q 613 767 383 408 l 65 767 l 65 931 l 817 931 l 817 768 z "},"8":{"ha":881,"x_min":65,"x_max":815,"o":"m 815 297 q 717 67 814 150 q 440 -17 619 -17 q 167 69 269 -17 q 65 297 65 154 q 174 517 67 451 q 94 692 94 582 q 190 876 94 807 q 440 946 286 946 q 692 876 597 946 q 786 692 786 807 q 708 519 789 583 q 815 297 813 454 m 619 699 q 439 796 619 793 q 261 699 261 793 q 442 599 261 601 q 619 699 619 601 m 650 293 q 440 438 651 435 q 232 293 233 436 q 442 140 232 147 q 650 293 644 144 z "},"9":{"ha":882,"x_min":67,"x_max":817,"o":"m 67 658 q 166 865 67 783 q 422 946 265 946 q 703 851 589 946 q 817 583 817 756 q 635 171 814 354 q 197 -17 457 -12 l 197 140 q 606 408 488 186 q 415 378 519 378 q 165 457 264 378 q 67 658 67 536 m 232 660 q 286 573 232 606 q 428 540 340 540 q 573 569 522 540 q 622 649 624 597 q 571 740 626 703 q 428 776 515 776 q 286 744 340 776 q 232 660 232 711 z "}," ":{"ha":354,"x_min":0,"x_max":0,"o":""},"!":{"ha":340,"x_min":76,"x_max":263,"o":"m 263 931 l 263 582 l 217 250 l 125 250 l 76 582 l 76 931 l 263 931 m 263 75 q 235 10 263 38 q 168 -17 207 -17 q 103 11 131 -17 q 76 75 76 39 q 103 142 76 114 q 168 169 131 169 q 235 142 207 169 q 263 75 263 114 z "},"\"":{"ha":688,"x_min":110,"x_max":579,"o":"m 579 931 l 554 558 l 429 558 l 400 931 l 579 931 m 289 931 l 260 558 l 139 558 l 110 931 l 289 931 z "},"#":{"ha":917,"x_min":56,"x_max":858,"o":"m 858 679 l 839 544 l 696 544 l 672 401 l 819 401 l 800 268 l 653 268 l 610 0 l 454 0 l 500 268 l 353 268 l 310 0 l 160 0 l 203 268 l 56 268 l 75 401 l 222 401 l 244 544 l 101 544 l 121 679 l 264 679 l 304 931 l 454 931 l 414 679 l 565 679 l 604 931 l 754 931 l 715 679 l 858 679 m 542 544 l 394 544 l 375 401 l 522 401 l 542 544 z "},"$":{"ha":868,"x_min":67,"x_max":800,"o":"m 510 1044 l 510 886 l 360 886 l 360 1044 l 510 1044 m 510 -1 l 510 -160 l 360 -160 l 360 -1 l 510 -1 m 800 271 q 685 65 799 147 q 438 -17 572 -17 q 67 175 210 -17 l 206 269 q 432 157 301 164 q 577 192 519 157 q 635 278 635 226 q 593 359 639 324 q 408 425 547 394 q 159 529 224 464 q 93 682 94 594 q 180 862 90 783 q 413 940 269 940 q 760 764 639 929 l 628 676 q 413 776 551 765 q 263 682 263 776 q 301 620 264 644 q 428 579 338 596 q 719 461 639 539 q 800 271 799 383 z "},"%":{"ha":660,"x_min":33,"x_max":626,"o":"m 603 136 l 553 136 q 528 196 554 171 q 467 221 503 221 q 405 197 431 221 q 379 136 379 172 q 405 76 379 101 q 467 50 431 50 q 528 76 503 50 q 553 136 554 101 l 603 136 q 563 40 603 81 q 467 0 522 0 q 372 40 411 0 q 332 136 332 81 q 371 232 332 193 q 467 271 410 271 q 562 231 521 271 q 603 136 603 192 m 324 796 l 274 796 q 249 856 275 831 q 188 881 224 881 q 126 856 151 881 q 100 796 100 832 q 126 735 100 761 q 188 710 151 710 q 249 735 224 710 q 274 796 275 761 l 324 796 q 283 700 324 740 q 188 660 243 660 q 92 700 132 660 q 53 796 53 740 q 92 892 53 853 q 188 931 131 931 q 283 891 242 931 q 324 796 324 851 m 626 931 l 94 0 l 33 0 l 567 931 l 626 931 z "},"&":{"ha":854,"x_min":49,"x_max":806,"o":"m 493 740 q 367 813 438 813 q 310 790 332 813 q 289 735 289 768 q 303 679 289 704 q 346 610 318 654 l 544 343 q 564 457 564 406 l 703 457 q 635 222 692 319 l 806 0 l 621 0 l 547 97 q 438 6 489 32 q 317 -19 388 -19 q 124 57 199 -19 q 49 254 49 133 q 97 426 49 350 q 207 557 144 501 q 150 731 150 635 q 211 883 150 824 q 367 943 272 943 q 596 822 504 943 l 493 740 m 463 213 l 289 429 q 199 258 204 363 q 235 164 199 204 q 322 124 271 124 q 463 213 399 124 z "},"'":{"ha":410,"x_min":115,"x_max":294,"o":"m 294 931 l 265 558 l 144 558 l 115 931 l 294 931 z "},"(":{"ha":396,"x_min":58,"x_max":339,"o":"m 339 -107 l 218 -107 q 58 428 58 118 q 218 956 58 731 l 339 956 q 254 808 286 871 q 179 424 179 649 q 261 36 179 224 q 339 -107 283 -14 z "},")":{"ha":396,"x_min":58,"x_max":339,"o":"m 58 -107 q 136 36 114 -14 q 218 424 218 224 q 143 808 218 649 q 58 956 111 871 l 179 956 q 339 428 339 731 q 179 -107 339 118 l 58 -107 l 58 -107 z "},"*":{"ha":660,"x_min":75,"x_max":585,"o":"m 585 689 l 435 657 l 542 558 l 418 464 l 332 592 l 249 467 l 121 554 l 224 657 l 75 692 l 118 836 l 268 782 l 249 931 l 418 931 l 397 778 l 542 832 l 585 689 z "},"+":{"ha":660,"x_min":36,"x_max":624,"o":"m 624 392 l 410 392 l 410 179 l 249 179 l 249 392 l 36 392 l 36 558 l 249 558 l 249 767 l 410 767 l 410 558 l 624 558 l 624 392 z "},",":{"ha":326,"x_min":69,"x_max":256,"o":"m 256 75 q 212 -67 254 0 q 89 -156 169 -133 l 89 -126 q 171 -17 154 -93 l 161 -17 q 97 11 124 -17 q 69 75 69 39 q 97 142 69 114 q 161 169 124 169 q 228 142 200 169 q 256 75 256 114 z "},"-":{"ha":382,"x_min":36,"x_max":344,"o":"m 344 392 l 36 392 l 36 558 l 344 558 l 344 392 z "},".":{"ha":326,"x_min":69,"x_max":256,"o":"m 256 75 q 228 10 256 38 q 161 -17 200 -17 q 97 11 124 -17 q 69 75 69 39 q 97 142 69 114 q 161 169 124 169 q 228 142 200 169 q 256 75 256 114 z "},"/":{"ha":799,"x_min":0,"x_max":799,"o":"m 799 931 l 157 0 l 0 0 l 635 931 l 799 931 z "},":":{"ha":326,"x_min":69,"x_max":256,"o":"m 256 600 q 228 535 256 563 q 161 508 200 508 q 97 535 124 508 q 69 600 69 563 q 97 667 69 639 q 161 694 124 694 q 228 667 200 694 q 256 600 256 639 m 256 75 q 228 10 256 38 q 161 -17 200 -17 q 97 11 124 -17 q 69 75 69 39 q 97 142 69 114 q 161 169 124 169 q 228 142 200 169 q 256 75 256 114 z "},";":{"ha":326,"x_min":69,"x_max":256,"o":"m 256 600 q 228 535 256 563 q 161 508 200 508 q 97 535 124 508 q 69 600 69 563 q 97 667 69 639 q 161 694 124 694 q 228 667 200 694 q 256 600 256 639 m 256 75 q 212 -67 254 0 q 89 -156 169 -133 l 89 -126 q 171 -17 154 -93 l 161 -17 q 97 11 124 -17 q 69 75 69 39 q 97 142 69 114 q 161 169 124 169 q 228 142 200 169 q 256 75 256 114 z "},"<":{"ha":811,"x_min":76,"x_max":735,"o":"m 76 435 l 76 549 l 735 826 l 735 706 l 213 492 l 735 275 l 735 153 l 76 435 z "},"=":{"ha":660,"x_min":29,"x_max":633,"o":"m 633 522 l 29 522 l 29 689 l 633 689 l 633 522 m 633 254 l 29 254 l 29 421 l 633 421 l 633 254 z "},">":{"ha":811,"x_min":76,"x_max":735,"o":"m 76 153 l 76 275 l 599 492 l 76 706 l 76 826 l 735 549 l 735 435 l 76 153 z "},"?":{"ha":729,"x_min":51,"x_max":679,"o":"m 464 75 q 436 10 464 38 q 369 -17 408 -17 q 305 11 332 -17 q 278 75 278 39 q 305 142 278 114 q 369 169 332 169 q 436 142 408 169 q 464 75 464 114 m 679 692 q 582 478 679 592 q 456 251 482 369 l 299 251 q 417 514 311 390 q 513 685 513 622 q 476 756 513 729 q 379 783 440 783 q 186 678 272 781 l 51 772 q 386 950 164 942 q 598 878 517 950 q 679 692 679 806 z "},"@":{"ha":979,"x_min":29,"x_max":949,"o":"m 694 340 q 729 299 692 299 q 815 372 774 299 q 857 526 857 444 q 763 758 857 669 q 517 847 668 847 q 244 734 354 847 q 133 456 133 621 q 237 185 133 292 q 517 78 340 78 q 782 128 665 78 l 808 29 q 521 -19 688 -19 q 166 107 303 -19 q 29 457 29 233 q 168 804 29 663 q 507 946 307 946 q 825 829 701 946 q 949 532 949 713 q 881 306 949 404 q 724 208 814 208 q 606 271 643 207 q 469 236 547 236 q 330 281 378 236 q 282 394 282 325 q 335 515 282 467 q 469 564 388 564 q 575 549 525 564 q 493 610 578 610 q 367 578 428 610 l 318 675 q 493 724 411 724 q 694 529 694 724 l 694 340 m 575 372 l 575 439 q 469 454 518 454 q 419 439 440 454 q 399 401 399 424 q 423 363 399 379 q 481 347 447 347 q 575 372 531 347 z "},"A":{"ha":1021,"x_min":36,"x_max":986,"o":"m 986 0 l 806 0 l 715 218 l 310 218 l 218 0 l 36 0 l 428 931 l 597 931 l 986 0 m 643 385 l 513 699 l 382 385 l 643 385 z "},"B":{"ha":938,"x_min":94,"x_max":844,"o":"m 844 274 q 806 138 844 203 q 704 39 768 74 q 561 0 633 0 l 94 0 l 94 931 l 528 931 q 689 897 631 931 q 815 685 815 826 q 719 490 815 546 q 844 274 843 431 m 649 672 q 626 738 649 714 q 563 764 603 761 l 264 764 l 264 578 l 563 578 q 627 606 606 581 q 649 672 649 631 m 679 283 q 648 374 679 338 q 563 411 617 410 l 264 411 l 264 167 l 563 167 q 648 199 617 165 q 679 283 679 232 z "},"C":{"ha":938,"x_min":92,"x_max":846,"o":"m 846 189 q 486 -17 717 -17 q 198 115 304 -17 q 92 467 92 247 q 197 817 92 688 q 486 946 303 946 q 846 740 718 946 l 694 665 q 486 781 622 776 q 321 687 381 778 q 261 469 261 596 q 323 237 261 319 q 489 154 385 154 q 690 267 628 156 l 846 189 z "},"D":{"ha":938,"x_min":97,"x_max":842,"o":"m 842 467 q 617 56 842 181 q 397 0 515 0 l 97 0 l 97 931 l 397 931 q 619 871 517 931 q 842 467 842 744 m 675 467 q 538 728 675 651 q 397 764 474 764 l 267 764 l 267 167 l 397 167 q 531 203 465 167 q 675 467 675 281 z "},"E":{"ha":896,"x_min":101,"x_max":796,"o":"m 796 0 l 101 0 l 101 931 l 781 931 l 781 764 l 271 764 l 271 590 l 549 590 l 549 421 l 271 421 l 271 167 l 796 167 l 796 0 z "},"F":{"ha":896,"x_min":101,"x_max":796,"o":"m 796 764 l 271 764 l 271 575 l 561 575 l 561 404 l 271 404 l 271 0 l 101 0 l 101 931 l 796 931 l 796 764 z "},"G":{"ha":938,"x_min":92,"x_max":846,"o":"m 493 464 l 846 464 l 846 343 q 738 88 846 192 q 476 -17 631 -17 q 181 135 285 -17 q 92 467 92 265 q 197 813 92 681 q 476 946 303 946 q 825 753 717 946 l 669 675 q 476 781 596 781 q 319 692 379 781 q 258 467 258 604 q 303 253 258 333 q 476 150 358 150 q 600 192 544 150 q 672 297 656 233 l 493 297 l 493 464 z "},"H":{"ha":938,"x_min":94,"x_max":844,"o":"m 844 0 l 679 0 l 679 408 l 261 404 l 261 0 l 94 0 l 94 931 l 261 931 l 261 571 l 679 571 l 679 931 l 844 931 l 844 0 z "},"I":{"ha":410,"x_min":121,"x_max":288,"o":"m 288 0 l 121 0 l 121 931 l 288 931 l 288 0 z "},"J":{"ha":910,"x_min":85,"x_max":824,"o":"m 824 339 q 728 87 821 190 q 468 -17 636 -17 q 228 66 328 -17 q 85 283 129 149 l 249 336 q 471 150 318 154 q 603 211 550 150 q 657 375 657 272 l 657 931 l 824 931 l 824 339 z "},"K":{"ha":924,"x_min":76,"x_max":847,"o":"m 847 0 l 657 0 l 419 483 l 243 261 l 243 0 l 76 0 l 76 931 l 243 931 l 243 535 l 572 931 l 788 931 l 540 626 l 847 0 z "},"L":{"ha":896,"x_min":101,"x_max":796,"o":"m 796 0 l 101 0 l 101 931 l 271 931 l 271 167 l 796 167 l 796 0 z "},"M":{"ha":1104,"x_min":117,"x_max":988,"o":"m 988 0 l 825 0 l 825 568 l 551 0 l 279 568 l 279 0 l 117 0 l 117 931 l 279 931 l 551 378 l 825 931 l 988 931 l 988 0 z "},"N":{"ha":938,"x_min":94,"x_max":844,"o":"m 844 0 l 701 0 l 257 628 l 257 0 l 94 0 l 94 931 l 257 931 l 685 310 l 685 931 l 844 931 l 844 0 z "},"O":{"ha":938,"x_min":79,"x_max":858,"o":"m 858 469 q 753 117 858 251 q 474 -17 649 -17 q 174 138 282 -17 q 79 467 79 271 q 185 817 79 689 q 474 946 290 946 q 752 815 646 946 q 858 469 858 683 m 693 467 q 635 697 693 614 q 474 781 578 781 q 308 697 368 781 q 249 467 249 614 q 308 234 249 318 q 474 150 368 150 q 649 254 593 150 q 693 467 693 336 z "},"P":{"ha":924,"x_min":96,"x_max":826,"o":"m 529 365 l 263 365 l 263 0 l 96 0 l 96 931 l 524 931 q 683 892 615 931 q 826 646 826 808 q 683 394 826 471 q 529 365 615 365 m 660 646 q 624 732 660 700 q 526 764 588 764 l 263 764 l 263 532 l 526 532 q 624 563 588 532 q 660 646 660 594 z "},"Q":{"ha":967,"x_min":93,"x_max":872,"o":"m 872 469 q 774 114 868 257 l 860 -8 l 728 -108 l 649 6 q 488 -17 564 -18 q 194 127 296 -17 q 93 467 93 271 q 199 817 93 689 q 488 946 304 946 q 766 815 660 946 q 872 469 872 683 m 707 467 q 649 697 707 614 q 488 781 592 781 q 322 697 382 781 q 263 467 263 614 q 322 234 263 318 q 488 150 382 150 q 557 164 525 149 l 463 299 l 589 399 l 669 282 q 707 467 708 351 z "},"R":{"ha":938,"x_min":93,"x_max":843,"o":"m 843 0 l 657 0 l 507 365 l 260 365 l 260 0 l 93 0 l 93 931 l 521 931 q 681 892 613 931 q 824 646 824 808 q 674 399 824 481 l 843 0 m 657 646 q 621 732 657 700 q 524 764 585 764 l 260 764 l 260 532 l 524 532 q 621 563 585 532 q 657 646 657 594 z "},"S":{"ha":868,"x_min":67,"x_max":800,"o":"m 800 271 q 703 65 799 147 q 438 -17 608 -17 q 67 175 210 -17 l 206 269 q 443 143 300 146 q 583 178 532 142 q 635 274 633 214 q 594 356 639 324 q 414 419 550 388 q 159 529 224 464 q 93 682 94 594 q 180 862 90 783 q 413 940 269 940 q 760 764 639 929 l 628 676 q 413 776 551 765 q 299 749 338 776 q 263 686 260 721 q 304 622 261 647 q 428 582 347 597 q 710 465 622 546 q 800 271 799 383 z "},"T":{"ha":826,"x_min":64,"x_max":763,"o":"m 763 767 l 494 767 l 494 0 l 332 0 l 332 767 l 64 767 l 64 931 l 763 931 l 763 767 z "},"U":{"ha":938,"x_min":94,"x_max":844,"o":"m 844 375 q 739 94 844 204 q 469 -17 633 -17 q 200 94 306 -17 q 94 375 94 204 l 94 931 l 261 931 l 261 375 q 290 254 261 304 q 469 153 351 153 q 649 254 589 153 q 679 375 679 304 l 679 931 l 844 931 l 844 375 z "},"V":{"ha":938,"x_min":35,"x_max":903,"o":"m 903 931 l 557 0 l 378 0 l 35 931 l 214 931 l 468 251 l 724 931 l 903 931 z "},"W":{"ha":1063,"x_min":38,"x_max":1024,"o":"m 1024 931 l 857 0 l 681 0 l 531 624 l 383 0 l 207 0 l 38 931 l 210 931 l 311 329 l 449 931 l 615 931 l 758 329 l 853 931 l 1024 931 z "},"X":{"ha":938,"x_min":65,"x_max":871,"o":"m 871 0 l 675 0 l 467 329 l 261 0 l 65 0 l 369 489 l 92 931 l 290 931 l 467 646 l 643 931 l 842 931 l 568 489 l 871 0 z "},"Y":{"ha":1021,"x_min":36,"x_max":986,"o":"m 986 931 l 594 379 l 594 0 l 428 0 l 428 379 l 36 931 l 242 931 l 513 551 l 781 931 l 986 931 z "},"Z":{"ha":868,"x_min":68,"x_max":799,"o":"m 799 0 l 68 0 l 68 189 l 597 767 l 97 767 l 97 931 l 799 931 l 799 740 l 274 167 l 799 167 l 799 0 z "},"[":{"ha":382,"x_min":53,"x_max":328,"o":"m 53 961 l 328 961 l 328 860 l 150 860 l 150 -125 l 328 -125 l 328 -226 l 53 -226 l 53 961 z "},"\\":{"ha":799,"x_min":0,"x_max":799,"o":"m 164 931 l 799 0 l 642 0 l 0 931 l 164 931 z "},"]":{"ha":382,"x_min":53,"x_max":328,"o":"m 328 -226 l 53 -226 l 53 -125 l 231 -125 l 231 860 l 53 860 l 53 961 l 328 961 l 328 -226 z "},"^":{"ha":660,"x_min":40,"x_max":619,"o":"m 167 468 l 40 468 l 281 1011 l 379 1011 l 619 468 l 496 468 l 329 872 l 167 468 z "},"_":{"ha":772,"x_min":-21,"x_max":788,"o":"m -21 -276 l -21 -187 l 788 -187 l 788 -276 l -21 -276 z "},"`":{"ha":340,"x_min":32,"x_max":308,"o":"m 201 740 l 32 931 l 213 931 l 308 740 l 201 740 z "},"a":{"ha":688,"x_min":60,"x_max":628,"o":"m 628 0 l 471 0 l 471 29 q 304 -12 397 -12 q 122 55 185 -12 q 60 225 60 122 q 134 389 60 331 q 321 447 208 447 q 469 426 397 447 q 354 539 467 532 q 190 490 271 540 l 113 614 q 357 696 238 696 q 550 617 472 696 q 628 411 628 538 l 628 0 m 471 165 l 471 279 q 329 301 390 301 q 240 276 272 301 q 208 217 208 251 q 239 154 208 181 q 325 128 269 128 q 471 165 388 128 z "},"b":{"ha":715,"x_min":72,"x_max":643,"o":"m 643 336 q 573 90 643 196 q 363 -18 503 -17 q 239 31 290 -17 l 239 0 l 72 0 l 72 863 l 239 946 l 239 650 q 368 692 289 690 q 570 583 497 692 q 643 336 643 474 m 492 339 q 455 476 492 424 q 351 529 418 529 q 239 465 278 525 l 239 207 q 349 147 272 150 q 452 202 413 147 q 492 339 492 257 z "},"c":{"ha":658,"x_min":42,"x_max":617,"o":"m 617 111 q 365 -17 514 -17 q 133 84 225 -17 q 42 339 42 185 q 133 594 42 493 q 365 696 225 696 q 617 568 514 696 l 518 469 q 368 535 453 531 q 248 480 294 535 q 201 339 201 425 q 248 199 201 254 q 368 143 294 143 q 508 219 453 150 l 617 111 z "},"d":{"ha":715,"x_min":72,"x_max":643,"o":"m 72 336 q 145 583 72 474 q 347 692 218 692 q 476 650 426 690 l 476 863 l 643 946 l 643 0 l 476 0 l 476 31 q 353 -18 425 -17 q 142 90 213 -17 q 72 336 72 196 m 224 339 q 263 202 224 257 q 367 147 303 147 q 476 207 443 150 l 476 465 q 364 529 438 525 q 260 476 297 529 q 224 339 224 424 z "},"e":{"ha":688,"x_min":54,"x_max":633,"o":"m 633 288 l 218 288 q 266 176 224 215 q 353 138 308 138 q 465 190 410 138 l 568 88 q 353 -17 481 -17 q 141 85 228 -17 q 54 336 54 188 q 139 586 54 483 q 346 689 224 689 q 561 578 490 688 q 633 336 632 468 l 633 288 m 469 418 q 431 507 467 472 q 350 540 396 542 q 262 505 299 542 q 224 418 225 468 l 469 418 z "},"f":{"ha":421,"x_min":35,"x_max":388,"o":"m 388 515 l 286 515 l 286 0 l 122 0 l 122 515 l 35 515 l 35 675 l 122 675 l 122 761 q 164 883 122 835 q 289 931 206 931 q 388 908 335 931 l 388 772 q 332 782 361 781 q 286 731 285 782 l 286 675 l 388 675 l 388 515 z "},"g":{"ha":715,"x_min":72,"x_max":643,"o":"m 72 336 q 145 583 72 474 q 347 692 218 692 q 476 650 422 692 l 476 679 l 643 679 l 643 0 q 552 -223 642 -135 q 349 -336 463 -311 l 311 -178 q 476 0 460 -139 l 476 31 q 353 -18 425 -17 q 142 90 213 -17 q 72 336 72 196 m 224 339 q 263 202 224 257 q 367 147 303 147 q 476 207 443 150 l 476 465 q 364 529 438 525 q 260 476 297 529 q 224 339 224 424 z "},"h":{"ha":688,"x_min":58,"x_max":629,"o":"m 58 868 l 215 946 l 215 622 q 381 685 278 685 q 559 609 490 685 q 629 413 628 533 l 629 0 l 463 0 l 463 404 q 430 493 463 458 q 342 528 397 528 q 253 491 292 528 q 215 407 215 454 l 215 0 l 58 0 l 58 868 z "},"i":{"ha":340,"x_min":88,"x_max":254,"o":"m 254 865 q 229 804 254 829 q 171 779 204 779 q 111 803 135 779 q 88 865 88 826 q 112 922 88 899 q 171 946 136 946 q 229 922 204 946 q 254 865 254 899 m 254 679 l 254 0 l 88 0 l 88 679 l 254 679 z "},"j":{"ha":340,"x_min":-33,"x_max":254,"o":"m 254 865 q 229 804 254 829 q 171 779 204 779 q 111 803 135 779 q 88 865 88 826 q 112 922 88 899 q 171 946 136 946 q 229 922 204 946 q 254 865 254 899 m 254 679 l 254 0 q 43 -337 236 -221 l -33 -201 q 88 0 72 -129 l 88 679 l 254 679 z "},"k":{"ha":660,"x_min":51,"x_max":610,"o":"m 610 0 l 443 0 l 310 324 l 218 199 l 218 0 l 51 0 l 51 861 l 218 946 l 218 444 l 397 675 l 603 675 l 424 460 l 610 0 z "},"l":{"ha":340,"x_min":86,"x_max":253,"o":"m 253 0 l 86 0 l 86 863 l 253 946 l 253 0 z "},"m":{"ha":1090,"x_min":64,"x_max":1026,"o":"m 1026 0 l 860 0 l 860 404 q 828 495 860 461 q 743 529 797 529 q 660 494 694 529 q 625 411 625 458 l 625 0 l 465 0 l 465 404 q 429 494 465 458 q 342 529 393 529 q 262 494 293 529 q 231 408 231 460 l 231 0 l 64 0 l 64 679 l 231 679 l 231 624 q 394 685 283 683 q 568 590 506 681 q 760 685 631 683 q 957 597 888 682 q 1026 413 1026 513 l 1026 0 z "},"n":{"ha":688,"x_min":58,"x_max":629,"o":"m 58 675 l 215 675 l 215 622 q 381 685 278 685 q 559 609 490 685 q 629 413 628 533 l 629 0 l 463 0 l 463 404 q 430 493 463 458 q 342 528 397 528 q 253 491 292 528 q 215 407 215 454 l 215 0 l 58 0 l 58 675 z "},"o":{"ha":688,"x_min":47,"x_max":642,"o":"m 642 339 q 555 88 642 192 q 344 -17 468 -17 q 133 88 219 -17 q 47 339 47 192 q 133 592 47 488 q 344 696 219 696 q 555 592 468 696 q 642 339 642 488 m 481 339 q 443 476 481 422 q 346 529 406 529 q 246 475 283 529 q 208 339 208 421 q 246 202 208 257 q 346 147 283 147 q 443 202 406 147 q 481 339 481 257 z "},"p":{"ha":715,"x_min":72,"x_max":643,"o":"m 643 336 q 573 90 643 196 q 363 -18 503 -17 q 239 31 290 -17 l 239 -251 l 72 -336 l 72 679 l 239 679 l 239 650 q 368 692 289 690 q 570 583 497 692 q 643 336 643 474 m 492 339 q 455 476 492 424 q 351 529 418 529 q 239 465 278 525 l 239 207 q 349 147 272 150 q 452 202 413 147 q 492 339 492 257 z "},"q":{"ha":715,"x_min":72,"x_max":643,"o":"m 72 336 q 145 583 72 474 q 347 692 218 692 q 476 650 426 690 l 476 679 l 643 679 l 643 -253 l 476 -336 l 476 31 q 353 -18 425 -17 q 142 90 213 -17 q 72 336 72 196 m 224 339 q 263 202 224 257 q 367 147 303 147 q 476 207 443 150 l 476 465 q 364 529 438 525 q 260 476 297 529 q 224 339 224 424 z "},"r":{"ha":535,"x_min":85,"x_max":521,"o":"m 521 649 l 469 490 q 369 533 431 535 q 251 399 253 535 l 251 0 l 85 0 l 85 679 l 251 679 l 251 639 q 378 696 301 696 q 521 649 460 696 z "},"s":{"ha":660,"x_min":39,"x_max":619,"o":"m 619 193 q 542 44 618 101 q 342 -15 465 -14 q 39 65 176 -12 l 114 210 q 338 140 232 142 q 431 157 406 140 q 457 203 457 174 q 432 249 457 233 q 331 278 407 264 q 124 359 178 304 q 72 476 71 414 q 142 628 71 565 q 333 692 213 692 q 594 618 469 692 l 526 483 q 338 538 440 532 q 256 523 276 536 q 235 488 235 510 q 255 454 233 465 q 338 435 276 443 q 550 356 482 417 q 619 193 618 296 z "},"t":{"ha":535,"x_min":57,"x_max":478,"o":"m 478 176 l 429 1 q 338 -17 388 -15 q 213 44 258 -17 q 168 193 168 104 l 168 519 l 57 519 l 57 675 l 168 675 l 168 861 l 338 946 l 338 675 l 478 675 l 478 519 l 338 519 l 338 201 q 397 139 342 138 q 478 176 436 136 z "},"u":{"ha":688,"x_min":58,"x_max":629,"o":"m 629 0 l 472 0 l 472 53 q 307 -10 410 -10 q 128 66 197 -10 q 58 263 60 142 l 58 675 l 225 675 l 225 271 q 258 182 225 217 q 346 147 290 147 q 434 184 396 147 q 472 268 472 221 l 472 675 l 629 675 l 629 0 z "},"v":{"ha":701,"x_min":21,"x_max":681,"o":"m 681 679 l 439 0 l 263 0 l 21 679 l 188 679 l 350 218 l 514 679 l 681 679 z "},"w":{"ha":924,"x_min":18,"x_max":906,"o":"m 906 679 l 717 0 l 557 0 l 463 411 l 368 0 l 207 0 l 18 679 l 182 679 l 288 310 l 374 679 l 550 679 l 643 310 l 743 679 l 906 679 z "},"x":{"ha":688,"x_min":4,"x_max":683,"o":"m 683 0 l 497 0 l 343 235 l 193 0 l 4 0 l 253 382 l 60 679 l 249 679 l 343 529 l 442 679 l 628 679 l 439 382 l 683 0 z "},"y":{"ha":757,"x_min":21,"x_max":736,"o":"m 736 679 l 353 -336 l 182 -336 l 311 0 l 21 679 l 190 679 l 390 213 l 567 679 l 736 679 z "},"z":{"ha":660,"x_min":35,"x_max":625,"o":"m 625 0 l 35 0 l 35 147 l 368 515 l 51 515 l 51 679 l 625 679 l 625 531 l 271 160 l 625 160 l 625 0 z "},"{":{"ha":465,"x_min":36,"x_max":429,"o":"m 36 415 q 165 517 142 418 q 176 676 175 564 q 181 826 176 728 q 307 1004 196 974 q 390 1011 331 1011 l 429 1011 l 429 904 l 407 904 q 310 872 332 904 q 290 765 290 846 q 283 542 290 586 q 242 431 272 471 q 149 360 213 390 q 269 235 239 322 q 290 54 290 174 q 293 -103 290 -79 q 328 -172 300 -154 q 407 -186 351 -186 l 429 -186 l 429 -292 l 390 -292 q 294 -282 325 -292 q 185 -143 203 -249 q 181 -1 181 -110 q 172 160 181 107 q 121 276 160 244 q 36 304 88 303 l 36 415 z "},"|":{"ha":285,"x_min":107,"x_max":176,"o":"m 107 -292 l 107 1011 l 176 1011 l 176 -292 l 107 -292 z "},"}":{"ha":465,"x_min":36,"x_max":429,"o":"m 429 304 q 344 276 378 303 q 293 160 306 244 q 285 -1 285 107 q 281 -143 285 -110 q 171 -282 263 -249 q 75 -292 140 -292 l 36 -292 l 36 -186 l 58 -186 q 138 -172 114 -186 q 172 -103 165 -154 q 175 54 175 -79 q 196 235 175 174 q 317 360 226 322 q 223 431 253 390 q 182 542 193 471 q 175 765 175 586 q 156 872 175 846 q 58 904 133 904 l 36 904 l 36 1011 l 75 1011 q 158 1004 135 1011 q 285 826 269 974 q 289 676 289 728 q 300 517 290 564 q 429 415 324 418 l 429 304 z "},"~":{"ha":811,"x_min":58,"x_max":753,"o":"m 58 378 l 58 517 q 247 599 131 599 q 461 539 321 599 q 578 507 536 507 q 753 600 668 507 l 753 457 q 565 379 671 379 q 369 435 493 379 q 236 469 289 469 q 58 378 154 469 z "},"€":{"ha":938,"x_min":71,"x_max":867,"o":"m 547 508 l 71 508 l 71 590 l 547 590 l 547 508 m 547 343 l 71 343 l 71 425 l 547 425 l 547 343 m 867 189 q 507 -17 738 -17 q 219 115 325 -17 q 113 467 113 247 q 218 817 113 688 q 507 946 324 946 q 867 740 739 946 l 715 665 q 507 781 643 776 q 342 687 401 778 q 282 469 282 596 q 344 237 282 319 q 510 154 406 154 q 711 267 649 156 l 867 189 z "},"ƒ":{"ha":421,"x_min":35,"x_max":388,"o":"m 388 515 l 286 515 l 286 -254 l 122 -336 l 122 515 l 35 515 l 35 675 l 122 675 l 122 761 q 164 883 122 835 q 289 931 206 931 q 388 908 335 931 l 388 772 q 332 782 361 781 q 286 731 285 782 l 286 675 l 388 675 l 388 515 z "},"„":{"ha":618,"x_min":68,"x_max":551,"o":"m 551 75 q 508 -67 550 0 q 385 -156 465 -133 l 385 -126 q 467 -17 450 -93 l 457 -17 q 392 11 419 -17 q 365 75 365 39 q 392 142 365 114 q 457 169 419 169 q 524 142 496 169 q 551 75 551 114 m 254 75 q 210 -67 253 0 q 88 -156 168 -133 l 88 -126 q 169 -17 153 -93 l 160 -17 q 95 11 122 -17 q 68 75 68 39 q 95 142 68 114 q 160 169 122 169 q 226 142 199 169 q 254 75 254 114 z "},"…":{"ha":1118,"x_min":69,"x_max":1049,"o":"m 651 75 q 624 10 651 38 q 557 -17 596 -17 q 492 11 519 -17 q 465 75 465 39 q 492 142 465 114 q 557 169 519 169 q 624 142 596 169 q 651 75 651 114 m 1049 75 q 1021 10 1049 38 q 954 -17 993 -17 q 890 11 917 -17 q 863 75 863 39 q 890 142 863 114 q 954 169 917 169 q 1021 142 993 169 q 1049 75 1049 114 m 256 75 q 228 10 256 38 q 161 -17 200 -17 q 97 11 124 -17 q 69 75 69 39 q 97 142 69 114 q 161 169 124 169 q 228 142 200 169 q 256 75 256 114 z "},"†":{"ha":632,"x_min":53,"x_max":578,"o":"m 340 618 l 340 -150 l 286 -150 l 286 618 l 53 618 l 53 681 l 286 681 l 286 960 l 340 960 l 340 681 l 578 681 l 578 618 l 340 618 z "},"‡":{"ha":632,"x_min":53,"x_max":578,"o":"m 340 618 l 340 197 l 578 197 l 578 133 l 340 133 l 340 -150 l 286 -150 l 286 133 l 53 133 l 53 196 l 286 196 l 286 618 l 53 618 l 53 681 l 286 681 l 286 960 l 340 960 l 340 681 l 578 681 l 578 618 l 340 618 z "},"ˆ":{"ha":479,"x_min":26,"x_max":453,"o":"m 343 740 l 239 844 l 135 740 l 26 740 l 161 931 l 317 931 l 453 740 l 343 740 z "},"‰":{"ha":979,"x_min":40,"x_max":938,"o":"m 938 136 l 888 136 q 863 196 889 171 q 801 221 838 221 q 740 197 765 221 q 714 136 714 172 q 740 76 714 101 q 801 50 765 50 q 863 76 838 50 q 888 136 889 101 l 938 136 q 897 40 938 81 q 801 0 857 0 q 706 40 746 0 q 667 136 667 81 q 706 232 667 193 q 801 271 744 271 q 897 231 856 271 q 938 136 938 192 m 331 796 l 281 796 q 256 856 282 831 q 194 881 231 881 q 133 856 158 881 q 107 796 107 832 q 133 735 107 761 q 194 710 158 710 q 256 735 231 710 q 281 796 282 761 l 331 796 q 290 700 331 740 q 194 660 250 660 q 99 700 139 660 q 60 796 60 740 q 99 892 60 853 q 194 931 138 931 q 290 891 249 931 q 331 796 331 851 m 633 931 l 101 0 l 40 0 l 574 931 l 633 931 m 610 136 l 560 136 q 535 196 561 171 q 474 221 510 221 q 412 197 438 221 q 386 136 386 172 q 412 76 386 101 q 474 50 438 50 q 535 76 510 50 q 560 136 561 101 l 610 136 q 569 40 610 81 q 474 0 529 0 q 378 40 418 0 q 339 136 339 81 q 378 232 339 193 q 474 271 417 271 q 569 231 528 271 q 610 136 610 192 z "},"Š":{"ha":868,"x_min":67,"x_max":800,"o":"m 647 1161 l 511 971 l 356 971 l 221 1161 l 329 1161 l 433 1057 l 538 1161 l 647 1161 m 800 271 q 703 65 799 147 q 438 -17 608 -17 q 67 175 210 -17 l 206 269 q 443 143 300 146 q 583 178 532 142 q 635 274 633 214 q 594 356 639 324 q 414 419 550 388 q 159 529 224 464 q 93 682 94 594 q 180 862 90 783 q 413 940 269 940 q 760 764 639 929 l 628 676 q 413 776 551 765 q 299 749 338 776 q 263 686 260 721 q 304 622 261 647 q 428 582 347 597 q 710 465 622 546 q 800 271 799 383 z "},"‹":{"ha":382,"x_min":29,"x_max":354,"o":"m 354 696 l 193 411 l 354 126 l 192 126 l 29 411 l 192 696 l 354 696 z "},"Œ":{"ha":1465,"x_min":79,"x_max":1388,"o":"m 858 469 q 753 117 858 251 q 474 -17 649 -17 q 174 138 282 -17 q 79 467 79 271 q 185 817 79 689 q 474 946 290 946 q 752 815 646 946 q 858 469 858 683 m 693 467 q 635 697 693 614 q 474 781 578 781 q 308 697 368 781 q 249 467 249 614 q 308 234 249 318 q 474 150 368 150 q 649 254 593 150 q 693 467 693 336 m 1388 0 l 693 0 l 693 931 l 1372 931 l 1372 764 l 863 764 l 863 590 l 1140 590 l 1140 421 l 863 421 l 863 167 l 1388 167 l 1388 0 z "},"Ž":{"ha":868,"x_min":68,"x_max":799,"o":"m 799 0 l 68 0 l 68 189 l 597 767 l 97 767 l 97 931 l 799 931 l 799 740 l 274 167 l 799 167 l 799 0 m 647 1161 l 511 971 l 356 971 l 221 1161 l 329 1161 l 433 1057 l 538 1161 l 647 1161 z "},"‘":{"ha":326,"x_min":69,"x_max":256,"o":"m 69 700 q 113 842 71 775 q 236 931 156 908 l 236 901 q 154 792 171 868 l 164 792 q 228 764 201 792 q 256 700 256 736 q 228 633 256 661 q 164 606 201 606 q 97 633 125 606 q 69 700 69 661 z "},"’":{"ha":326,"x_min":69,"x_max":256,"o":"m 256 836 q 212 694 254 761 q 89 606 169 628 l 89 635 q 171 744 154 668 l 161 744 q 97 772 124 744 q 69 836 69 800 q 97 903 69 875 q 161 931 124 931 q 228 903 200 931 q 256 836 256 875 z "},"“":{"ha":618,"x_min":68,"x_max":551,"o":"m 68 700 q 112 842 69 775 q 235 931 154 908 l 235 901 q 153 792 169 868 l 163 792 q 227 764 200 792 q 254 700 254 736 q 227 633 254 661 q 163 606 200 606 q 96 633 124 606 q 68 700 68 661 m 365 700 q 409 842 367 775 q 532 931 451 908 l 532 901 q 450 792 467 868 l 460 792 q 524 764 497 792 q 551 700 551 736 q 524 633 551 661 q 460 606 497 606 q 393 633 421 606 q 365 700 365 661 z "},"”":{"ha":618,"x_min":68,"x_max":551,"o":"m 551 836 q 508 694 550 761 q 385 606 465 628 l 385 635 q 467 744 450 668 l 457 744 q 392 772 419 744 q 365 836 365 800 q 392 903 365 875 q 457 931 419 931 q 524 903 496 931 q 551 836 551 875 m 254 836 q 210 694 253 761 q 88 606 168 628 l 88 635 q 169 744 153 668 l 160 744 q 95 772 122 744 q 68 836 68 800 q 95 903 68 875 q 160 931 122 931 q 226 903 199 931 q 254 836 254 875 z "},"•":{"ha":868,"x_min":83,"x_max":785,"o":"m 785 421 q 683 171 785 272 q 433 69 581 69 q 185 172 288 69 q 83 421 83 275 q 185 669 83 568 q 433 771 286 771 q 682 669 579 771 q 785 421 785 568 z "},"–":{"ha":771,"x_min":38,"x_max":732,"o":"m 732 392 l 38 392 l 38 558 l 732 558 l 732 392 z "},"—":{"ha":1465,"x_min":38,"x_max":1426,"o":"m 1426 392 l 38 392 l 38 558 l 1426 558 l 1426 392 z "},"˜":{"ha":493,"x_min":25,"x_max":469,"o":"m 469 931 q 420 805 465 846 q 319 765 375 764 q 294 768 303 767 q 272 774 286 769 l 197 799 q 178 803 186 801 q 156 804 171 804 q 122 791 136 804 q 97 750 107 778 l 25 750 q 68 872 29 832 q 161 913 107 913 q 185 910 178 911 q 206 906 192 908 l 286 879 q 307 876 300 876 q 329 875 314 875 q 365 890 350 876 q 385 931 381 904 l 469 931 z "},"™":{"ha":1021,"x_min":51,"x_max":968,"o":"m 406 836 l 275 836 l 275 451 l 182 451 l 182 836 l 51 836 l 51 931 l 406 931 l 406 836 m 968 451 l 868 451 l 868 711 l 735 451 l 597 711 l 597 451 l 499 451 l 499 931 l 597 931 l 735 668 l 868 931 l 968 931 l 968 451 z "},"š":{"ha":660,"x_min":39,"x_max":619,"o":"m 543 922 l 407 732 l 251 732 l 117 922 l 225 922 l 329 818 l 433 922 l 543 922 m 619 193 q 542 44 618 101 q 342 -15 465 -14 q 39 65 176 -12 l 114 210 q 338 140 232 142 q 431 157 406 140 q 457 203 457 174 q 432 249 457 233 q 331 278 407 264 q 124 359 178 304 q 72 476 71 414 q 142 628 71 565 q 333 692 213 692 q 594 618 469 692 l 526 483 q 338 538 440 532 q 256 523 276 536 q 235 488 235 510 q 255 454 233 465 q 338 435 276 443 q 550 356 482 417 q 619 193 618 296 z "},"›":{"ha":382,"x_min":29,"x_max":354,"o":"m 192 696 l 354 411 l 192 126 l 29 126 l 190 411 l 29 696 l 192 696 z "},"œ":{"ha":1104,"x_min":50,"x_max":1054,"o":"m 644 339 q 558 88 644 192 q 347 -17 471 -17 q 136 88 222 -17 q 50 339 50 192 q 136 592 50 488 q 347 696 222 696 q 558 592 471 696 q 644 339 644 488 m 483 339 q 446 476 483 422 q 349 529 408 529 q 249 475 286 529 q 211 339 211 421 q 249 202 211 257 q 349 147 286 147 q 446 202 408 147 q 483 339 483 257 m 1054 288 l 639 288 q 687 176 644 215 q 774 138 729 138 q 886 190 831 138 l 989 88 q 774 -17 901 -17 q 562 85 649 -17 q 475 336 475 188 q 560 586 475 483 q 767 689 644 689 q 982 578 911 688 q 1054 336 1053 468 l 1054 288 m 890 418 q 852 507 888 472 q 771 540 817 542 q 683 505 719 542 q 644 418 646 468 l 890 418 z "},"ž":{"ha":660,"x_min":35,"x_max":625,"o":"m 625 0 l 35 0 l 35 147 l 368 515 l 51 515 l 51 679 l 625 679 l 625 531 l 271 160 l 625 160 l 625 0 m 543 922 l 407 732 l 251 732 l 117 922 l 225 922 l 329 818 l 433 922 l 543 922 z "},"Ÿ":{"ha":1021,"x_min":36,"x_max":986,"o":"m 761 1078 q 733 1013 761 1040 q 667 986 706 986 q 602 1014 629 986 q 575 1078 575 1042 q 602 1144 575 1117 q 667 1172 629 1172 q 733 1144 706 1172 q 761 1078 761 1117 m 446 1078 q 418 1013 446 1040 q 351 986 390 986 q 287 1014 314 986 q 260 1078 260 1042 q 287 1144 260 1117 q 351 1172 314 1172 q 418 1144 390 1172 q 446 1078 446 1117 m 986 931 l 594 379 l 594 0 l 428 0 l 428 379 l 36 931 l 242 931 l 513 551 l 781 931 l 986 931 z "},"¡":{"ha":340,"x_min":76,"x_max":263,"o":"m 76 -17 l 76 332 l 125 664 l 217 664 l 263 332 l 263 -17 l 76 -17 m 263 839 q 235 772 263 800 q 168 744 207 744 q 103 772 131 744 q 76 839 76 800 q 103 903 76 875 q 168 931 131 931 q 235 903 207 931 q 263 839 263 876 z "},"¢":{"ha":658,"x_min":42,"x_max":617,"o":"m 617 232 q 365 104 514 104 q 133 205 225 104 q 42 460 42 306 q 133 715 42 614 q 365 817 225 817 q 617 689 514 817 l 518 590 q 368 656 453 651 q 248 601 294 656 q 201 460 201 546 q 248 319 201 375 q 368 264 294 264 q 508 340 453 271 l 617 232 m 319 0 l 319 931 l 410 931 l 410 0 l 319 0 z "},"£":{"ha":826,"x_min":65,"x_max":760,"o":"m 132 565 l 201 565 l 201 657 q 278 850 203 771 q 492 931 353 929 q 758 789 660 924 l 629 704 q 489 783 585 781 q 392 740 426 779 q 357 654 358 700 l 357 565 l 567 565 l 567 428 l 357 428 l 357 329 q 289 167 350 226 l 760 167 l 760 0 l 65 0 l 65 165 l 79 165 q 201 353 185 226 l 201 428 l 132 428 l 132 565 z "},"¤":{"ha":771,"x_min":51,"x_max":718,"o":"m 146 651 l 51 744 l 129 825 l 224 731 q 385 779 296 779 q 546 731 474 779 l 639 825 l 718 744 l 624 651 q 672 492 672 578 q 624 332 672 407 l 718 240 l 639 160 l 546 254 q 385 204 474 204 q 224 254 296 204 l 129 160 l 51 240 l 146 332 q 97 492 97 407 q 146 651 97 578 m 208 492 q 260 368 208 419 q 383 317 311 317 q 508 368 457 317 q 560 492 560 419 q 508 617 560 565 q 383 668 457 668 q 260 617 311 668 q 208 492 208 565 z "},"¥":{"ha":1021,"x_min":35,"x_max":989,"o":"m 989 213 l 35 213 l 35 379 l 989 379 l 989 213 m 986 931 l 594 379 l 594 0 l 428 0 l 428 379 l 36 931 l 242 931 l 513 551 l 781 931 l 986 931 z "},"¦":{"ha":285,"x_min":108,"x_max":178,"o":"m 178 1011 l 178 475 l 108 475 l 108 1011 l 178 1011 m 178 244 l 178 -292 l 108 -292 l 108 244 l 178 244 z "},"§":{"ha":660,"x_min":39,"x_max":621,"o":"m 619 157 q 542 8 618 65 q 342 -51 465 -50 q 39 29 176 -49 l 114 174 q 338 104 232 106 q 431 121 406 104 q 457 167 457 138 q 432 213 457 197 q 331 242 407 228 q 124 323 178 268 q 72 440 71 378 q 150 588 69 540 q 72 728 71 636 q 142 880 71 817 q 333 943 213 943 q 594 869 469 943 l 526 735 q 338 789 440 783 q 256 774 276 788 q 235 739 235 761 q 255 706 233 717 q 338 686 276 694 q 550 608 482 668 q 617 454 618 547 q 542 325 614 361 q 619 157 621 267 m 413 374 q 458 442 457 396 q 422 504 460 488 q 283 544 385 521 q 235 467 236 519 q 267 411 233 426 q 413 374 301 396 z "},"¨":{"ha":632,"x_min":65,"x_max":567,"o":"m 567 836 q 539 772 567 799 q 472 744 511 744 q 408 772 435 744 q 381 836 381 800 q 408 903 381 875 q 472 931 435 931 q 539 903 511 931 q 567 836 567 875 m 251 836 q 224 772 251 799 q 157 744 196 744 q 92 772 119 744 q 65 836 65 800 q 92 903 65 875 q 157 931 119 931 q 224 903 196 931 q 251 836 251 875 z "},"©":{"ha":1035,"x_min":39,"x_max":994,"o":"m 517 946 q 756 882 643 946 q 929 708 869 818 q 994 468 994 594 q 930 228 994 342 q 753 53 865 115 q 517 -8 640 -8 q 276 56 389 -8 q 101 233 164 121 q 39 468 39 344 q 105 711 39 597 q 284 885 171 825 q 517 946 397 946 m 517 868 q 318 814 411 868 q 172 668 225 760 q 119 468 119 572 q 174 268 119 361 q 322 122 228 175 q 517 69 415 69 q 716 124 622 69 q 862 272 810 179 q 914 468 914 365 q 859 671 914 576 q 710 817 804 765 q 517 868 615 868 m 669 392 l 747 368 q 666 240 728 286 q 517 194 604 194 q 331 272 399 194 q 267 467 267 346 q 389 706 267 640 q 522 736 446 736 q 738 588 694 736 l 663 569 q 519 667 624 667 q 393 606 438 667 q 353 465 353 551 q 390 328 353 381 q 514 269 432 269 q 614 303 571 269 q 669 392 657 336 z "},"ª":{"ha":479,"x_min":57,"x_max":421,"o":"m 421 488 l 318 488 l 318 507 q 211 481 272 481 q 96 524 135 481 q 57 638 57 568 q 103 745 57 707 q 221 783 150 783 q 317 769 272 783 q 244 844 315 840 q 139 813 189 846 l 89 894 q 246 946 169 946 q 369 895 318 946 q 421 760 421 844 l 421 488 m 318 597 l 318 672 q 226 688 268 688 q 170 671 190 688 q 150 631 150 654 q 169 590 150 607 q 224 572 189 572 q 318 597 265 572 z "},"«":{"ha":715,"x_min":38,"x_max":678,"o":"m 363 696 l 201 411 l 363 126 l 200 126 l 38 411 l 200 696 l 363 696 m 678 696 l 517 411 l 678 126 l 515 126 l 353 411 l 515 696 l 678 696 z "},"¬":{"ha":771,"x_min":38,"x_max":732,"o":"m 732 167 l 565 167 l 565 392 l 38 392 l 38 558 l 732 558 l 732 167 z "},"®":{"ha":979,"x_min":28,"x_max":951,"o":"m 490 946 q 723 884 614 946 q 890 715 832 822 q 951 483 951 604 q 890 250 951 360 q 719 81 828 140 q 490 21 611 21 q 257 83 365 21 q 88 255 149 146 q 28 483 28 364 q 92 718 28 608 q 265 887 156 828 q 490 946 374 946 m 490 861 q 302 810 390 861 q 164 672 214 760 q 115 482 115 579 q 166 290 115 379 q 306 151 217 200 q 490 101 394 101 q 681 153 592 101 q 820 294 769 204 q 871 482 871 383 q 817 674 871 583 q 675 813 764 765 q 490 861 586 861 m 288 228 l 288 725 l 458 725 q 563 718 529 725 q 649 664 619 706 q 671 590 671 629 q 635 492 671 532 q 543 444 604 451 l 706 228 l 617 228 l 451 439 l 367 439 l 367 228 l 288 228 m 367 508 l 465 508 q 543 519 519 507 q 586 583 589 536 q 539 650 586 631 q 458 658 518 658 l 367 658 l 367 508 z "},"¯":{"ha":493,"x_min":24,"x_max":468,"o":"m 24 901 l 468 901 l 468 828 l 24 828 l 24 901 z "},"°":{"ha":521,"x_min":72,"x_max":449,"o":"m 72 743 q 125 875 72 821 q 257 931 179 931 q 393 876 338 931 q 449 743 449 822 q 393 610 449 664 q 257 554 336 554 q 126 608 179 554 q 72 743 72 664 m 143 743 q 176 661 143 694 q 257 628 211 628 q 339 661 306 628 q 374 743 374 696 q 340 824 374 790 q 257 857 306 857 q 178 824 211 857 q 143 743 143 790 z "},"±":{"ha":660,"x_min":36,"x_max":624,"o":"m 624 114 l 36 114 l 36 281 l 624 281 l 624 114 m 624 542 l 410 542 l 410 329 l 249 329 l 249 542 l 36 542 l 36 708 l 249 708 l 249 917 l 410 917 l 410 708 l 624 708 l 624 542 z "},"²":{"ha":576,"x_min":58,"x_max":519,"o":"m 519 390 l 58 390 q 290 693 74 606 q 383 736 347 715 q 415 785 418 757 q 388 829 415 811 q 300 849 360 847 q 142 781 211 846 l 58 843 q 297 946 163 944 q 459 899 399 946 q 519 785 519 851 q 486 692 518 726 q 365 622 454 658 q 197 489 224 557 l 519 489 l 519 390 z "},"³":{"ha":576,"x_min":58,"x_max":519,"o":"m 519 568 q 453 442 519 493 q 290 390 388 390 q 58 485 149 393 l 131 557 q 296 489 200 492 q 383 510 349 489 q 417 564 417 531 q 385 623 414 603 q 321 644 356 643 l 286 644 l 286 743 l 317 743 q 365 758 343 743 q 388 796 388 774 q 359 837 388 821 q 286 853 331 853 q 150 807 213 853 l 85 872 q 292 946 167 946 q 435 904 379 946 q 492 797 492 863 q 428 699 492 729 q 519 568 519 651 z "},"´":{"ha":340,"x_min":32,"x_max":308,"o":"m 32 740 l 128 931 l 308 931 l 139 740 l 32 740 z "},"µ":{"ha":688,"x_min":58,"x_max":629,"o":"m 629 0 l 472 -79 l 472 53 q 338 -10 410 -10 q 225 49 272 -10 l 225 -132 l 58 -215 l 58 675 l 225 675 l 225 271 q 258 182 225 217 q 346 147 290 147 q 434 184 396 147 q 472 268 472 221 l 472 675 l 629 675 l 629 0 z "},"¶":{"ha":521,"x_min":26,"x_max":496,"o":"m 197 0 l 197 521 q 74 578 121 525 q 26 722 26 632 q 83 881 26 825 q 226 931 136 931 l 496 931 l 496 844 l 433 844 l 433 0 l 361 0 l 361 844 l 267 844 l 267 0 l 197 0 z "},"·":{"ha":326,"x_min":69,"x_max":256,"o":"m 256 600 q 228 535 256 563 q 161 508 200 508 q 97 535 124 508 q 69 600 69 563 q 97 667 69 639 q 161 694 124 694 q 228 667 200 694 q 256 600 256 639 z "},"¸":{"ha":410,"x_min":39,"x_max":369,"o":"m 39 -244 l 39 -169 q 127 -188 85 -182 q 201 -194 169 -194 q 240 -184 228 -194 q 253 -151 253 -174 q 236 -126 253 -135 q 181 -118 219 -118 q 161 -118 168 -118 q 147 -118 154 -118 l 147 0 l 217 0 l 217 -44 l 229 -44 q 332 -72 294 -44 q 369 -153 369 -100 q 329 -243 369 -212 q 213 -274 289 -274 q 135 -266 178 -274 q 39 -244 92 -258 z "},"¹":{"ha":368,"x_min":97,"x_max":272,"o":"m 272 375 l 168 375 l 168 793 l 97 793 l 97 876 q 189 931 160 889 l 272 931 l 272 375 z "},"º":{"ha":479,"x_min":35,"x_max":444,"o":"m 444 714 q 383 549 444 617 q 239 481 322 481 q 94 549 153 481 q 35 714 35 617 q 94 878 35 811 q 239 946 153 946 q 383 878 322 946 q 444 714 444 811 m 343 714 q 314 803 343 768 q 242 838 285 838 q 165 802 193 838 q 138 714 138 767 q 165 624 138 660 q 242 589 193 589 q 314 624 285 589 q 343 714 343 660 z "},"»":{"ha":715,"x_min":38,"x_max":678,"o":"m 515 696 l 678 411 l 515 126 l 353 126 l 514 411 l 353 696 l 515 696 m 200 696 l 363 411 l 200 126 l 38 126 l 199 411 l 38 696 l 200 696 z "},"¼":{"ha":1410,"x_min":94,"x_max":1317,"o":"m 1317 124 l 1226 124 l 1226 0 l 1119 0 l 1119 124 l 763 124 l 763 219 l 1122 604 l 1226 604 l 1226 221 l 1317 221 l 1317 124 m 1119 221 l 1119 453 l 903 221 l 1119 221 m 282 0 l 938 947 l 1021 947 l 371 0 l 282 0 m 275 343 l 168 343 l 168 799 l 94 799 l 94 889 q 189 947 160 903 l 275 947 l 275 343 z "},"½":{"ha":1563,"x_min":106,"x_max":1457,"o":"m 303 0 l 958 947 l 1042 947 l 392 0 l 303 0 m 286 343 l 179 343 l 179 799 l 106 799 l 106 889 q 200 947 171 903 l 286 947 l 286 343 m 1457 0 l 953 0 q 1208 329 972 233 q 1309 376 1269 353 q 1346 428 1349 399 q 1315 477 1346 457 q 1219 499 1283 497 q 1046 424 1121 496 l 956 493 q 1217 604 1068 603 q 1392 553 1326 604 q 1457 428 1457 501 q 1421 328 1456 365 q 1290 251 1386 292 q 1106 107 1136 182 l 1457 107 l 1457 0 z "},"¾":{"ha":1465,"x_min":67,"x_max":1397,"o":"m 1397 124 l 1307 124 l 1307 0 l 1200 0 l 1200 124 l 843 124 l 843 219 l 1203 604 l 1307 604 l 1307 221 l 1397 221 l 1397 124 m 1200 221 l 1200 453 l 983 221 l 1200 221 m 538 536 q 471 399 538 456 q 303 343 404 343 q 67 446 161 346 l 144 524 q 310 450 213 454 q 398 473 364 450 q 432 532 432 496 q 400 597 429 575 q 335 619 371 618 l 300 619 l 300 725 l 332 725 q 381 742 358 725 q 404 782 404 758 q 374 827 404 810 q 300 844 344 844 q 164 796 224 844 l 94 865 q 306 947 179 947 q 453 901 394 947 q 511 783 511 856 q 447 672 511 710 q 538 536 539 626 m 382 0 l 1038 947 l 1121 947 l 471 0 l 382 0 z "},"¿":{"ha":729,"x_min":51,"x_max":679,"o":"m 267 858 q 294 923 267 896 q 361 950 322 950 q 426 922 399 950 q 453 858 453 894 q 426 792 453 819 q 361 764 399 764 q 294 792 322 764 q 267 858 267 819 m 51 242 q 149 456 51 342 q 275 682 249 564 l 432 682 q 314 419 419 543 q 218 249 218 311 q 254 177 218 204 q 351 150 290 150 q 544 256 458 153 l 679 161 q 344 -17 567 -8 q 133 56 214 -17 q 51 242 51 128 z "},"À":{"ha":1021,"x_min":36,"x_max":986,"o":"m 986 0 l 806 0 l 715 218 l 310 218 l 218 0 l 36 0 l 428 931 l 597 931 l 986 0 m 643 385 l 513 699 l 382 385 l 643 385 m 543 971 l 374 1161 l 554 1161 l 650 971 l 543 971 z "},"Á":{"ha":1021,"x_min":36,"x_max":986,"o":"m 986 0 l 806 0 l 715 218 l 310 218 l 218 0 l 36 0 l 428 931 l 597 931 l 986 0 m 643 385 l 513 699 l 382 385 l 643 385 m 374 971 l 469 1161 l 650 1161 l 481 971 l 374 971 z "},"Â":{"ha":1021,"x_min":36,"x_max":986,"o":"m 986 0 l 806 0 l 715 218 l 310 218 l 218 0 l 36 0 l 428 931 l 597 931 l 986 0 m 643 385 l 513 699 l 382 385 l 643 385 m 615 972 l 511 1076 l 407 972 l 299 972 l 433 1163 l 589 1163 l 725 972 l 615 972 z "},"Ã":{"ha":1021,"x_min":36,"x_max":986,"o":"m 986 0 l 806 0 l 715 218 l 310 218 l 218 0 l 36 0 l 428 931 l 597 931 l 986 0 m 643 385 l 513 699 l 382 385 l 643 385 m 733 1143 q 684 1017 729 1058 q 583 978 639 976 q 558 981 567 979 q 536 986 550 982 l 461 1011 q 442 1015 450 1014 q 419 1017 435 1017 q 385 1003 400 1017 q 361 963 371 990 l 289 963 q 332 1085 293 1044 q 425 1125 371 1125 q 449 1122 442 1124 q 469 1118 456 1121 l 550 1092 q 571 1088 564 1089 q 593 1088 578 1088 q 629 1103 614 1089 q 649 1143 644 1117 l 733 1143 z "},"Ä":{"ha":1021,"x_min":36,"x_max":986,"o":"m 986 0 l 806 0 l 715 218 l 310 218 l 218 0 l 36 0 l 428 931 l 597 931 l 986 0 m 643 385 l 513 699 l 382 385 l 643 385 m 446 1078 q 418 1013 446 1040 q 351 986 390 986 q 287 1014 314 986 q 260 1078 260 1042 q 287 1144 260 1117 q 351 1172 314 1172 q 418 1144 390 1172 q 446 1078 446 1117 m 761 1078 q 733 1013 761 1040 q 667 986 706 986 q 602 1014 629 986 q 575 1078 575 1042 q 602 1144 575 1117 q 667 1172 629 1172 q 733 1144 706 1172 q 761 1078 761 1117 z "},"Å":{"ha":1021,"x_min":36,"x_max":986,"o":"m 986 0 l 806 0 l 715 218 l 310 218 l 218 0 l 36 0 l 428 931 l 597 931 l 986 0 m 643 385 l 513 699 l 382 385 l 643 385 m 647 1067 l 597 1067 q 573 1126 599 1101 q 511 1151 547 1151 q 449 1127 475 1151 q 424 1067 424 1103 q 449 1006 424 1032 q 511 981 475 981 q 573 1006 547 981 q 597 1067 599 1032 l 647 1067 q 607 971 647 1011 q 511 931 567 931 q 416 971 456 931 q 376 1067 376 1011 q 415 1163 376 1124 q 511 1201 454 1201 q 606 1162 565 1201 q 647 1067 647 1122 z "},"Æ":{"ha":1493,"x_min":35,"x_max":1419,"o":"m 725 218 l 386 218 l 235 0 l 35 0 l 656 931 l 1404 931 l 1404 764 l 894 764 l 894 590 l 1172 590 l 1172 421 l 894 421 l 894 167 l 1419 167 l 1419 0 l 725 0 l 725 725 l 486 385 l 725 385 l 725 218 z "},"Ç":{"ha":938,"x_min":92,"x_max":846,"o":"m 846 189 q 486 -17 717 -17 q 198 115 304 -17 q 92 467 92 247 q 197 817 92 688 q 486 946 303 946 q 846 740 718 946 l 694 665 q 486 781 622 776 q 321 687 381 778 q 261 469 261 596 q 323 237 261 319 q 489 154 385 154 q 690 267 628 156 l 846 189 m 343 -244 l 343 -169 q 431 -188 389 -182 q 506 -194 474 -194 q 544 -184 532 -194 q 557 -151 557 -174 q 540 -126 557 -135 q 485 -118 524 -118 q 465 -118 472 -118 q 451 -118 458 -118 l 451 0 l 521 0 l 521 -44 l 533 -44 q 636 -72 599 -44 q 674 -153 674 -100 q 633 -243 674 -212 q 517 -274 593 -274 q 439 -266 482 -274 q 343 -244 396 -258 z "},"È":{"ha":896,"x_min":101,"x_max":796,"o":"m 479 971 l 310 1161 l 490 1161 l 586 971 l 479 971 m 796 0 l 101 0 l 101 931 l 781 931 l 781 764 l 271 764 l 271 590 l 549 590 l 549 421 l 271 421 l 271 167 l 796 167 l 796 0 z "},"É":{"ha":896,"x_min":101,"x_max":796,"o":"m 796 0 l 101 0 l 101 931 l 781 931 l 781 764 l 271 764 l 271 590 l 549 590 l 549 421 l 271 421 l 271 167 l 796 167 l 796 0 m 310 971 l 406 1161 l 586 1161 l 417 971 l 310 971 z "},"Ê":{"ha":896,"x_min":101,"x_max":796,"o":"m 551 972 l 447 1076 l 343 972 l 235 972 l 369 1163 l 525 1163 l 661 972 l 551 972 m 796 0 l 101 0 l 101 931 l 781 931 l 781 764 l 271 764 l 271 590 l 549 590 l 549 421 l 271 421 l 271 167 l 796 167 l 796 0 z "},"Ë":{"ha":896,"x_min":101,"x_max":796,"o":"m 197 1078 q 225 1144 197 1117 q 292 1172 253 1172 q 356 1144 329 1172 q 383 1078 383 1117 q 356 1014 383 1042 q 292 986 329 986 q 225 1013 253 986 q 197 1078 197 1040 m 699 1078 q 671 1013 699 1040 q 604 986 643 986 q 540 1014 567 986 q 513 1078 513 1042 q 540 1144 513 1117 q 604 1172 567 1172 q 671 1144 643 1172 q 699 1078 699 1117 m 796 0 l 101 0 l 101 931 l 781 931 l 781 764 l 271 764 l 271 590 l 549 590 l 549 421 l 271 421 l 271 167 l 796 167 l 796 0 z "},"Ì":{"ha":410,"x_min":67,"x_max":343,"o":"m 236 971 l 67 1161 l 247 1161 l 343 971 l 236 971 m 288 0 l 121 0 l 121 931 l 288 931 l 288 0 z "},"Í":{"ha":410,"x_min":67,"x_max":343,"o":"m 67 971 l 163 1161 l 343 1161 l 174 971 l 67 971 m 288 0 l 121 0 l 121 931 l 288 931 l 288 0 z "},"Î":{"ha":410,"x_min":-8,"x_max":418,"o":"m 308 972 l 204 1076 l 100 972 l -8 972 l 126 1163 l 282 1163 l 418 972 l 308 972 m 288 0 l 121 0 l 121 931 l 288 931 l 288 0 z "},"Ï":{"ha":410,"x_min":-46,"x_max":456,"o":"m -46 1078 q -18 1144 -46 1117 q 49 1172 10 1172 q 113 1144 86 1172 q 140 1078 140 1117 q 113 1014 140 1042 q 49 986 86 986 q -18 1013 10 986 q -46 1078 -46 1040 m 456 1078 q 428 1013 456 1040 q 361 986 400 986 q 297 1014 324 986 q 269 1078 269 1042 q 297 1144 269 1117 q 361 1172 324 1172 q 428 1144 400 1172 q 456 1078 456 1117 m 288 0 l 121 0 l 121 931 l 288 931 l 288 0 z "},"Ð":{"ha":951,"x_min":63,"x_max":888,"o":"m 888 467 q 663 56 888 181 q 443 0 561 0 l 143 0 l 143 931 l 443 931 q 665 871 563 931 q 888 467 888 744 m 721 467 q 583 728 721 651 q 443 764 519 764 l 313 764 l 313 167 l 443 167 q 576 203 511 167 q 721 467 721 281 m 446 392 l 63 392 l 63 558 l 446 558 l 446 392 z "},"Ñ":{"ha":938,"x_min":94,"x_max":844,"o":"m 692 1143 q 642 1017 688 1058 q 542 978 597 976 q 517 981 525 979 q 494 986 508 982 l 419 1011 q 401 1015 408 1014 q 378 1017 393 1017 q 344 1003 358 1017 q 319 963 329 990 l 247 963 q 290 1085 251 1044 q 383 1125 329 1125 q 407 1122 400 1124 q 428 1118 414 1121 l 508 1092 q 529 1088 522 1089 q 551 1088 536 1088 q 588 1103 572 1089 q 607 1143 603 1117 l 692 1143 m 844 0 l 701 0 l 257 628 l 257 0 l 94 0 l 94 931 l 257 931 l 685 310 l 685 931 l 844 931 l 844 0 z "},"Ò":{"ha":938,"x_min":79,"x_max":858,"o":"m 858 469 q 753 117 858 251 q 474 -17 649 -17 q 174 138 282 -17 q 79 467 79 271 q 185 817 79 689 q 474 946 290 946 q 752 815 646 946 q 858 469 858 683 m 693 467 q 635 697 693 614 q 474 781 578 781 q 308 697 368 781 q 249 467 249 614 q 308 234 249 318 q 474 150 368 150 q 649 254 593 150 q 693 467 693 336 m 500 971 l 331 1161 l 511 1161 l 607 971 l 500 971 z "},"Ó":{"ha":938,"x_min":79,"x_max":858,"o":"m 858 469 q 753 117 858 251 q 474 -17 649 -17 q 174 138 282 -17 q 79 467 79 271 q 185 817 79 689 q 474 946 290 946 q 752 815 646 946 q 858 469 858 683 m 693 467 q 635 697 693 614 q 474 781 578 781 q 308 697 368 781 q 249 467 249 614 q 308 234 249 318 q 474 150 368 150 q 649 254 593 150 q 693 467 693 336 m 331 971 l 426 1161 l 607 1161 l 438 971 l 331 971 z "},"Ô":{"ha":938,"x_min":79,"x_max":858,"o":"m 858 469 q 753 117 858 251 q 474 -17 649 -17 q 174 138 282 -17 q 79 467 79 271 q 185 817 79 689 q 474 946 290 946 q 752 815 646 946 q 858 469 858 683 m 693 467 q 635 697 693 614 q 474 781 578 781 q 308 697 368 781 q 249 467 249 614 q 308 234 249 318 q 474 150 368 150 q 649 254 593 150 q 693 467 693 336 m 572 972 l 468 1076 l 364 972 l 256 972 l 390 1163 l 546 1163 l 682 972 l 572 972 z "},"Õ":{"ha":938,"x_min":79,"x_max":858,"o":"m 690 1143 q 641 1017 686 1058 q 540 978 596 976 q 515 981 524 979 q 493 986 507 982 l 418 1011 q 399 1015 407 1014 q 376 1017 392 1017 q 342 1003 357 1017 q 318 963 328 990 l 246 963 q 289 1085 250 1044 q 382 1125 328 1125 q 406 1122 399 1124 q 426 1118 413 1121 l 507 1092 q 528 1088 521 1089 q 550 1088 535 1088 q 586 1103 571 1089 q 606 1143 601 1117 l 690 1143 m 858 469 q 753 117 858 251 q 474 -17 649 -17 q 174 138 282 -17 q 79 467 79 271 q 185 817 79 689 q 474 946 290 946 q 752 815 646 946 q 858 469 858 683 m 693 467 q 635 697 693 614 q 474 781 578 781 q 308 697 368 781 q 249 467 249 614 q 308 234 249 318 q 474 150 368 150 q 649 254 593 150 q 693 467 693 336 z "},"Ö":{"ha":938,"x_min":79,"x_max":858,"o":"m 218 1078 q 246 1144 218 1117 q 313 1172 274 1172 q 377 1144 350 1172 q 404 1078 404 1117 q 377 1014 404 1042 q 313 986 350 986 q 246 1013 274 986 q 218 1078 218 1040 m 719 1078 q 692 1013 719 1040 q 625 986 664 986 q 560 1014 588 986 q 533 1078 533 1042 q 560 1144 533 1117 q 625 1172 588 1172 q 692 1144 664 1172 q 719 1078 719 1117 m 858 469 q 753 117 858 251 q 474 -17 649 -17 q 174 138 282 -17 q 79 467 79 271 q 185 817 79 689 q 474 946 290 946 q 752 815 646 946 q 858 469 858 683 m 693 467 q 635 697 693 614 q 474 781 578 781 q 308 697 368 781 q 249 467 249 614 q 308 234 249 318 q 474 150 368 150 q 649 254 593 150 q 693 467 693 336 z "},"×":{"ha":811,"x_min":110,"x_max":700,"o":"m 110 278 l 322 492 l 110 704 l 193 786 l 406 574 l 618 786 l 699 704 l 488 492 l 700 279 l 618 196 l 406 408 l 192 196 l 110 278 z "},"Ø":{"ha":938,"x_min":57,"x_max":889,"o":"m 889 946 l 203 -17 l 57 -17 l 732 946 l 889 946 m 858 469 q 753 117 858 251 q 474 -17 649 -17 q 174 138 282 -17 q 79 467 79 271 q 185 817 79 689 q 474 946 290 946 q 752 815 646 946 q 858 469 858 683 m 693 467 q 635 697 693 614 q 474 781 578 781 q 308 697 368 781 q 249 467 249 614 q 308 234 249 318 q 474 150 368 150 q 649 254 593 150 q 693 467 693 336 z "},"Ù":{"ha":938,"x_min":94,"x_max":844,"o":"m 844 375 q 739 94 844 204 q 469 -17 633 -17 q 200 94 306 -17 q 94 375 94 204 l 94 931 l 261 931 l 261 375 q 290 254 261 304 q 469 153 351 153 q 649 254 589 153 q 679 375 679 304 l 679 931 l 844 931 l 844 375 m 500 971 l 331 1161 l 511 1161 l 607 971 l 500 971 z "},"Ú":{"ha":938,"x_min":94,"x_max":844,"o":"m 331 971 l 426 1161 l 607 1161 l 438 971 l 331 971 m 844 375 q 739 94 844 204 q 469 -17 633 -17 q 200 94 306 -17 q 94 375 94 204 l 94 931 l 261 931 l 261 375 q 290 254 261 304 q 469 153 351 153 q 649 254 589 153 q 679 375 679 304 l 679 931 l 844 931 l 844 375 z "},"Û":{"ha":938,"x_min":94,"x_max":844,"o":"m 572 972 l 468 1076 l 364 972 l 256 972 l 390 1163 l 546 1163 l 682 972 l 572 972 m 844 375 q 739 94 844 204 q 469 -17 633 -17 q 200 94 306 -17 q 94 375 94 204 l 94 931 l 261 931 l 261 375 q 290 254 261 304 q 469 153 351 153 q 649 254 589 153 q 679 375 679 304 l 679 931 l 844 931 l 844 375 z "},"Ü":{"ha":938,"x_min":94,"x_max":844,"o":"m 844 375 q 739 94 844 204 q 469 -17 633 -17 q 200 94 306 -17 q 94 375 94 204 l 94 931 l 261 931 l 261 375 q 290 254 261 304 q 469 153 351 153 q 649 254 589 153 q 679 375 679 304 l 679 931 l 844 931 l 844 375 m 218 1078 q 246 1144 218 1117 q 313 1172 274 1172 q 377 1144 350 1172 q 404 1078 404 1117 q 377 1014 404 1042 q 313 986 350 986 q 246 1013 274 986 q 218 1078 218 1040 m 719 1078 q 692 1013 719 1040 q 625 986 664 986 q 560 1014 588 986 q 533 1078 533 1042 q 560 1144 533 1117 q 625 1172 588 1172 q 692 1144 664 1172 q 719 1078 719 1117 z "},"Ý":{"ha":1021,"x_min":36,"x_max":986,"o":"m 986 931 l 594 379 l 594 0 l 428 0 l 428 379 l 36 931 l 242 931 l 513 551 l 781 931 l 986 931 m 374 971 l 469 1161 l 650 1161 l 481 971 l 374 971 z "},"Þ":{"ha":924,"x_min":96,"x_max":826,"o":"m 529 763 l 263 763 l 263 931 l 96 931 l 96 0 l 263 0 l 263 197 l 524 197 q 683 236 615 197 q 826 482 826 319 q 683 733 826 657 q 529 763 615 763 m 660 482 q 624 396 660 428 q 526 364 588 364 l 263 364 l 263 596 l 526 596 q 624 565 588 596 q 660 482 660 533 z "},"ß":{"ha":840,"x_min":71,"x_max":771,"o":"m 769 290 q 664 72 769 161 q 401 -17 558 -17 l 326 -17 l 326 153 l 411 153 q 551 189 497 153 q 604 283 604 225 q 554 386 601 351 q 451 424 507 421 l 326 424 l 326 590 l 446 590 q 523 617 488 590 q 558 682 558 643 q 513 753 558 725 q 394 781 467 781 q 287 738 329 778 q 244 639 244 697 l 244 -129 l 71 -215 l 71 639 q 174 861 76 776 q 404 946 271 946 q 636 872 544 946 q 728 685 728 799 q 650 511 728 567 q 769 290 771 433 z "},"à":{"ha":688,"x_min":60,"x_max":628,"o":"m 628 0 l 471 0 l 471 29 q 304 -12 397 -12 q 122 55 185 -12 q 60 225 60 122 q 134 389 60 331 q 321 447 208 447 q 469 426 397 447 q 354 539 467 532 q 190 490 271 540 l 113 614 q 357 696 238 696 q 550 617 472 696 q 628 411 628 538 l 628 0 m 471 165 l 471 279 q 329 301 390 301 q 240 276 272 301 q 208 217 208 251 q 239 154 208 181 q 325 128 269 128 q 471 165 388 128 m 375 726 l 206 917 l 386 917 l 482 726 l 375 726 z "},"á":{"ha":688,"x_min":60,"x_max":628,"o":"m 628 0 l 471 0 l 471 29 q 304 -12 397 -12 q 122 55 185 -12 q 60 225 60 122 q 134 389 60 331 q 321 447 208 447 q 469 426 397 447 q 354 539 467 532 q 190 490 271 540 l 113 614 q 357 696 238 696 q 550 617 472 696 q 628 411 628 538 l 628 0 m 471 165 l 471 279 q 329 301 390 301 q 240 276 272 301 q 208 217 208 251 q 239 154 208 181 q 325 128 269 128 q 471 165 388 128 m 206 726 l 301 917 l 482 917 l 313 726 l 206 726 z "},"â":{"ha":688,"x_min":60,"x_max":628,"o":"m 628 0 l 471 0 l 471 29 q 304 -12 397 -12 q 122 55 185 -12 q 60 225 60 122 q 134 389 60 331 q 321 447 208 447 q 469 426 397 447 q 354 539 467 532 q 190 490 271 540 l 113 614 q 357 696 238 696 q 550 617 472 696 q 628 411 628 538 l 628 0 m 471 165 l 471 279 q 329 301 390 301 q 240 276 272 301 q 208 217 208 251 q 239 154 208 181 q 325 128 269 128 q 471 165 388 128 m 447 732 l 343 836 l 239 732 l 131 732 l 265 922 l 421 922 l 557 732 l 447 732 z "},"ã":{"ha":688,"x_min":60,"x_max":628,"o":"m 628 0 l 471 0 l 471 29 q 304 -12 397 -12 q 122 55 185 -12 q 60 225 60 122 q 134 389 60 331 q 321 447 208 447 q 469 426 397 447 q 354 539 467 532 q 190 490 271 540 l 113 614 q 357 696 238 696 q 550 617 472 696 q 628 411 628 538 l 628 0 m 471 165 l 471 279 q 329 301 390 301 q 240 276 272 301 q 208 217 208 251 q 239 154 208 181 q 325 128 269 128 q 471 165 388 128 m 565 919 q 516 794 561 835 q 415 754 471 753 q 390 757 399 756 q 368 763 382 758 l 293 788 q 274 792 282 790 q 251 793 267 793 q 217 780 232 793 q 193 739 203 767 l 121 739 q 164 861 125 821 q 257 901 203 901 q 281 899 274 900 q 301 894 288 897 l 382 868 q 403 865 396 865 q 425 864 410 864 q 461 879 446 865 q 481 919 476 893 l 565 919 z "},"ä":{"ha":688,"x_min":60,"x_max":628,"o":"m 628 0 l 471 0 l 471 29 q 304 -12 397 -12 q 122 55 185 -12 q 60 225 60 122 q 134 389 60 331 q 321 447 208 447 q 469 426 397 447 q 354 539 467 532 q 190 490 271 540 l 113 614 q 357 696 238 696 q 550 617 472 696 q 628 411 628 538 l 628 0 m 471 165 l 471 279 q 329 301 390 301 q 240 276 272 301 q 208 217 208 251 q 239 154 208 181 q 325 128 269 128 q 471 165 388 128 m 279 822 q 251 758 279 785 q 185 731 224 731 q 120 758 147 731 q 93 822 93 786 q 120 889 93 861 q 185 917 147 917 q 251 889 224 917 q 279 822 279 861 m 594 822 q 567 758 594 785 q 500 731 539 731 q 435 758 463 731 q 408 822 408 786 q 435 889 408 861 q 500 917 463 917 q 567 889 539 917 q 594 822 594 861 z "},"å":{"ha":688,"x_min":60,"x_max":628,"o":"m 479 861 l 429 861 q 405 921 431 896 q 343 946 379 946 q 281 922 307 946 q 256 861 256 897 q 281 801 256 826 q 343 775 307 775 q 405 801 379 775 q 429 861 431 826 l 479 861 q 439 765 479 806 q 343 725 399 725 q 248 765 288 725 q 208 861 208 806 q 247 957 208 918 q 343 996 286 996 q 438 956 397 996 q 479 861 479 917 m 628 0 l 471 0 l 471 29 q 304 -12 397 -12 q 122 55 185 -12 q 60 225 60 122 q 134 389 60 331 q 321 447 208 447 q 469 426 397 447 q 354 539 467 532 q 190 490 271 540 l 113 614 q 357 696 238 696 q 550 617 472 696 q 628 411 628 538 l 628 0 m 471 165 l 471 279 q 329 301 390 301 q 240 276 272 301 q 208 217 208 251 q 239 154 208 181 q 325 128 269 128 q 471 165 388 128 z "},"æ":{"ha":1104,"x_min":56,"x_max":1049,"o":"m 624 149 q 300 -12 515 -17 q 118 55 181 -12 q 56 225 56 122 q 130 389 56 331 q 317 447 204 447 q 465 426 393 447 q 350 539 463 532 q 186 490 267 540 l 108 614 q 353 696 233 696 q 546 617 468 696 q 624 411 624 538 l 624 149 m 467 165 l 467 279 q 325 301 386 301 q 236 276 268 301 q 204 217 204 251 q 235 154 204 181 q 321 128 265 128 q 467 165 383 128 m 1049 294 l 633 294 q 681 183 639 222 q 768 144 724 144 q 881 197 825 144 l 983 94 q 768 -10 896 -10 q 556 92 643 -10 q 469 343 469 194 q 554 593 469 490 q 761 696 639 696 q 976 585 906 694 q 1049 343 1047 475 l 1049 294 m 878 419 q 840 508 875 474 q 758 542 804 543 q 670 506 707 543 q 632 419 633 469 l 878 419 z "},"ç":{"ha":658,"x_min":42,"x_max":617,"o":"m 617 111 q 365 -17 514 -17 q 133 84 225 -17 q 42 339 42 185 q 133 594 42 493 q 365 696 225 696 q 617 568 514 696 l 518 469 q 368 535 453 531 q 248 480 294 535 q 201 339 201 425 q 248 199 201 254 q 368 143 294 143 q 508 219 453 150 l 617 111 m 222 -244 l 222 -169 q 310 -188 268 -182 q 385 -194 353 -194 q 424 -184 411 -194 q 436 -151 436 -174 q 419 -126 436 -135 q 364 -118 403 -118 q 344 -118 351 -118 q 331 -118 338 -118 l 331 0 l 400 0 l 400 -44 l 413 -44 q 515 -72 478 -44 q 553 -153 553 -100 q 513 -243 553 -212 q 396 -274 472 -274 q 318 -266 361 -274 q 222 -244 275 -258 z "},"è":{"ha":688,"x_min":54,"x_max":633,"o":"m 633 288 l 218 288 q 266 176 224 215 q 353 138 308 138 q 465 190 410 138 l 568 88 q 353 -17 481 -17 q 141 85 228 -17 q 54 336 54 188 q 139 586 54 483 q 346 689 224 689 q 561 578 490 688 q 633 336 632 468 l 633 288 m 469 418 q 431 507 467 472 q 350 540 396 542 q 262 505 299 542 q 224 418 225 468 l 469 418 m 375 726 l 206 917 l 386 917 l 482 726 l 375 726 z "},"é":{"ha":688,"x_min":54,"x_max":633,"o":"m 633 288 l 218 288 q 266 176 224 215 q 353 138 308 138 q 465 190 410 138 l 568 88 q 353 -17 481 -17 q 141 85 228 -17 q 54 336 54 188 q 139 586 54 483 q 346 689 224 689 q 561 578 490 688 q 633 336 632 468 l 633 288 m 469 418 q 431 507 467 472 q 350 540 396 542 q 262 505 299 542 q 224 418 225 468 l 469 418 m 206 726 l 301 917 l 482 917 l 313 726 l 206 726 z "},"ê":{"ha":688,"x_min":54,"x_max":633,"o":"m 633 288 l 218 288 q 266 176 224 215 q 353 138 308 138 q 465 190 410 138 l 568 88 q 353 -17 481 -17 q 141 85 228 -17 q 54 336 54 188 q 139 586 54 483 q 346 689 224 689 q 561 578 490 688 q 633 336 632 468 l 633 288 m 469 418 q 431 507 467 472 q 350 540 396 542 q 262 505 299 542 q 224 418 225 468 l 469 418 m 447 732 l 343 836 l 239 732 l 131 732 l 265 922 l 421 922 l 557 732 l 447 732 z "},"ë":{"ha":688,"x_min":54,"x_max":633,"o":"m 633 288 l 218 288 q 266 176 224 215 q 353 138 308 138 q 465 190 410 138 l 568 88 q 353 -17 481 -17 q 141 85 228 -17 q 54 336 54 188 q 139 586 54 483 q 346 689 224 689 q 561 578 490 688 q 633 336 632 468 l 633 288 m 469 418 q 431 507 467 472 q 350 540 396 542 q 262 505 299 542 q 224 418 225 468 l 469 418 m 279 822 q 251 758 279 785 q 185 731 224 731 q 120 758 147 731 q 93 822 93 786 q 120 889 93 861 q 185 917 147 917 q 251 889 224 917 q 279 822 279 861 m 594 822 q 567 758 594 785 q 500 731 539 731 q 435 758 463 731 q 408 822 408 786 q 435 889 408 861 q 500 917 463 917 q 567 889 539 917 q 594 822 594 861 z "},"ì":{"ha":340,"x_min":32,"x_max":308,"o":"m 201 726 l 32 917 l 213 917 l 308 726 l 201 726 m 254 679 l 254 0 l 88 0 l 88 679 l 254 679 z "},"í":{"ha":340,"x_min":32,"x_max":308,"o":"m 32 726 l 128 917 l 308 917 l 139 726 l 32 726 m 254 679 l 254 0 l 88 0 l 88 679 l 254 679 z "},"î":{"ha":340,"x_min":-43,"x_max":383,"o":"m 274 732 l 169 836 l 65 732 l -43 732 l 92 922 l 247 922 l 383 732 l 274 732 m 254 679 l 254 0 l 88 0 l 88 679 l 254 679 z "},"ï":{"ha":340,"x_min":-81,"x_max":421,"o":"m 106 822 q 78 758 106 785 q 11 731 50 731 q -53 758 -26 731 q -81 822 -81 786 q -53 889 -81 861 q 11 917 -26 917 q 78 889 50 917 q 106 822 106 861 m 421 822 q 393 758 421 785 q 326 731 365 731 q 262 758 289 731 q 235 822 235 786 q 262 889 235 861 q 326 917 289 917 q 393 889 365 917 q 421 822 421 861 m 254 679 l 254 0 l 88 0 l 88 679 l 254 679 z "},"ð":{"ha":688,"x_min":39,"x_max":649,"o":"m 649 311 q 568 86 647 189 q 344 -17 489 -17 q 126 84 214 -17 q 40 311 39 185 q 118 533 40 443 q 301 629 196 624 q 379 622 339 629 q 136 815 314 735 l 201 946 q 524 702 399 871 q 649 311 649 533 m 340 133 q 447 185 411 135 q 483 304 483 236 q 444 425 483 375 q 340 475 404 475 q 236 424 272 475 q 200 304 200 374 q 236 183 200 233 q 340 133 272 133 m 76 719 l 524 942 l 578 832 l 132 608 l 76 719 z "},"ñ":{"ha":688,"x_min":58,"x_max":629,"o":"m 565 919 q 516 794 561 835 q 415 754 471 753 q 390 757 399 756 q 368 763 382 758 l 293 788 q 274 792 282 790 q 251 793 267 793 q 217 780 232 793 q 193 739 203 767 l 121 739 q 164 861 125 821 q 257 901 203 901 q 281 899 274 900 q 301 894 288 897 l 382 868 q 403 865 396 865 q 425 864 410 864 q 461 879 446 865 q 481 919 476 893 l 565 919 m 58 675 l 215 675 l 215 622 q 381 685 278 685 q 559 609 490 685 q 629 413 628 533 l 629 0 l 463 0 l 463 404 q 430 493 463 458 q 342 528 397 528 q 253 491 292 528 q 215 407 215 454 l 215 0 l 58 0 l 58 675 z "},"ò":{"ha":688,"x_min":47,"x_max":642,"o":"m 642 339 q 555 88 642 192 q 344 -17 468 -17 q 133 88 219 -17 q 47 339 47 192 q 133 592 47 488 q 344 696 219 696 q 555 592 468 696 q 642 339 642 488 m 481 339 q 443 476 481 422 q 346 529 406 529 q 246 475 283 529 q 208 339 208 421 q 246 202 208 257 q 346 147 283 147 q 443 202 406 147 q 481 339 481 257 m 375 726 l 206 917 l 386 917 l 482 726 l 375 726 z "},"ó":{"ha":688,"x_min":47,"x_max":642,"o":"m 642 339 q 555 88 642 192 q 344 -17 468 -17 q 133 88 219 -17 q 47 339 47 192 q 133 592 47 488 q 344 696 219 696 q 555 592 468 696 q 642 339 642 488 m 481 339 q 443 476 481 422 q 346 529 406 529 q 246 475 283 529 q 208 339 208 421 q 246 202 208 257 q 346 147 283 147 q 443 202 406 147 q 481 339 481 257 m 206 726 l 301 917 l 482 917 l 313 726 l 206 726 z "},"ô":{"ha":688,"x_min":47,"x_max":642,"o":"m 642 339 q 555 88 642 192 q 344 -17 468 -17 q 133 88 219 -17 q 47 339 47 192 q 133 592 47 488 q 344 696 219 696 q 555 592 468 696 q 642 339 642 488 m 481 339 q 443 476 481 422 q 346 529 406 529 q 246 475 283 529 q 208 339 208 421 q 246 202 208 257 q 346 147 283 147 q 443 202 406 147 q 481 339 481 257 m 447 732 l 343 836 l 239 732 l 131 732 l 265 922 l 421 922 l 557 732 l 447 732 z "},"õ":{"ha":688,"x_min":47,"x_max":642,"o":"m 642 339 q 555 88 642 192 q 344 -17 468 -17 q 133 88 219 -17 q 47 339 47 192 q 133 592 47 488 q 344 696 219 696 q 555 592 468 696 q 642 339 642 488 m 481 339 q 443 476 481 422 q 346 529 406 529 q 246 475 283 529 q 208 339 208 421 q 246 202 208 257 q 346 147 283 147 q 443 202 406 147 q 481 339 481 257 m 565 919 q 516 794 561 835 q 415 754 471 753 q 390 757 399 756 q 368 763 382 758 l 293 788 q 274 792 282 790 q 251 793 267 793 q 217 780 232 793 q 193 739 203 767 l 121 739 q 164 861 125 821 q 257 901 203 901 q 281 899 274 900 q 301 894 288 897 l 382 868 q 403 865 396 865 q 425 864 410 864 q 461 879 446 865 q 481 919 476 893 l 565 919 z "},"ö":{"ha":688,"x_min":47,"x_max":642,"o":"m 642 339 q 555 88 642 192 q 344 -17 468 -17 q 133 88 219 -17 q 47 339 47 192 q 133 592 47 488 q 344 696 219 696 q 555 592 468 696 q 642 339 642 488 m 481 339 q 443 476 481 422 q 346 529 406 529 q 246 475 283 529 q 208 339 208 421 q 246 202 208 257 q 346 147 283 147 q 443 202 406 147 q 481 339 481 257 m 279 822 q 251 758 279 785 q 185 731 224 731 q 120 758 147 731 q 93 822 93 786 q 120 889 93 861 q 185 917 147 917 q 251 889 224 917 q 279 822 279 861 m 594 822 q 567 758 594 785 q 500 731 539 731 q 435 758 463 731 q 408 822 408 786 q 435 889 408 861 q 500 917 463 917 q 567 889 539 917 q 594 822 594 861 z "},"÷":{"ha":799,"x_min":81,"x_max":719,"o":"m 400 394 q 455 371 431 394 q 479 314 479 347 q 455 257 479 281 q 400 233 431 233 q 342 257 365 233 q 318 314 318 281 q 342 371 318 347 q 400 394 365 394 m 81 576 l 719 576 l 719 471 l 81 471 l 81 576 m 400 811 q 455 788 431 811 q 479 732 479 765 q 455 675 479 699 q 400 651 431 651 q 342 675 365 651 q 318 732 318 699 q 342 788 318 765 q 400 811 365 811 z "},"ø":{"ha":688,"x_min":15,"x_max":674,"o":"m 674 696 l 157 -17 l 15 -17 l 533 696 l 674 696 m 481 339 q 443 476 481 422 q 346 529 406 529 q 246 475 283 529 q 208 339 208 421 q 246 202 208 257 q 346 147 283 147 q 443 202 406 147 q 481 339 481 257 m 642 339 q 555 88 642 192 q 344 -17 468 -17 q 133 88 219 -17 q 47 339 47 192 q 133 592 47 488 q 344 696 219 696 q 555 592 468 696 q 642 339 642 488 z "},"ù":{"ha":688,"x_min":58,"x_max":629,"o":"m 629 0 l 472 0 l 472 53 q 307 -10 410 -10 q 128 66 197 -10 q 58 263 60 142 l 58 675 l 225 675 l 225 271 q 258 182 225 217 q 346 147 290 147 q 434 184 396 147 q 472 268 472 221 l 472 675 l 629 675 l 629 0 m 375 726 l 206 917 l 386 917 l 482 726 l 375 726 z "},"ú":{"ha":688,"x_min":58,"x_max":629,"o":"m 206 726 l 301 917 l 482 917 l 313 726 l 206 726 m 629 0 l 472 0 l 472 53 q 307 -10 410 -10 q 128 66 197 -10 q 58 263 60 142 l 58 675 l 225 675 l 225 271 q 258 182 225 217 q 346 147 290 147 q 434 184 396 147 q 472 268 472 221 l 472 675 l 629 675 l 629 0 z "},"û":{"ha":688,"x_min":58,"x_max":629,"o":"m 447 732 l 343 836 l 239 732 l 131 732 l 265 922 l 421 922 l 557 732 l 447 732 m 629 0 l 472 0 l 472 53 q 307 -10 410 -10 q 128 66 197 -10 q 58 263 60 142 l 58 675 l 225 675 l 225 271 q 258 182 225 217 q 346 147 290 147 q 434 184 396 147 q 472 268 472 221 l 472 675 l 629 675 l 629 0 z "},"ü":{"ha":688,"x_min":58,"x_max":629,"o":"m 279 822 q 251 758 279 785 q 185 731 224 731 q 120 758 147 731 q 93 822 93 786 q 120 889 93 861 q 185 917 147 917 q 251 889 224 917 q 279 822 279 861 m 594 822 q 567 758 594 785 q 500 731 539 731 q 435 758 463 731 q 408 822 408 786 q 435 889 408 861 q 500 917 463 917 q 567 889 539 917 q 594 822 594 861 m 629 0 l 472 0 l 472 53 q 307 -10 410 -10 q 128 66 197 -10 q 58 263 60 142 l 58 675 l 225 675 l 225 271 q 258 182 225 217 q 346 147 290 147 q 434 184 396 147 q 472 268 472 221 l 472 675 l 629 675 l 629 0 z "},"ý":{"ha":757,"x_min":21,"x_max":736,"o":"m 240 726 l 336 917 l 517 917 l 347 726 l 240 726 m 736 679 l 353 -336 l 182 -336 l 311 0 l 21 679 l 190 679 l 390 213 l 567 679 l 736 679 z "},"þ":{"ha":715,"x_min":72,"x_max":643,"o":"m 643 336 q 573 90 643 196 q 363 -18 503 -17 q 239 31 290 -17 l 239 -251 l 72 -336 l 72 863 l 239 946 l 239 650 q 368 692 289 690 q 570 583 497 692 q 643 336 643 474 m 492 339 q 455 476 492 424 q 351 529 418 529 q 239 465 278 525 l 239 207 q 349 147 272 150 q 452 202 413 147 q 492 339 492 257 z "},"ÿ":{"ha":757,"x_min":21,"x_max":736,"o":"m 314 822 q 286 758 314 785 q 219 731 258 731 q 155 758 182 731 q 128 822 128 786 q 155 889 128 861 q 219 917 182 917 q 286 889 258 917 q 314 822 314 861 m 629 822 q 601 758 629 785 q 535 731 574 731 q 470 758 497 731 q 443 822 443 786 q 470 889 443 861 q 535 917 497 917 q 601 889 574 917 q 629 822 629 861 m 736 679 l 353 -336 l 182 -336 l 311 0 l 21 679 l 190 679 l 390 213 l 567 679 l 736 679 z "}}}
